<svg xmlns="http://www.w3.org/2000/svg" width="32.355" height="37.434" viewBox="0 0 32.355 37.434">
  <g id="noun_site_size_2464027" data-name="noun_site size_2464027" transform="translate(-12.45 -6.53)">
    <g id="Grupo_4732" data-name="Grupo 4732" transform="translate(13 7.081)">
      <path id="Trazado_24402" data-name="Trazado 24402" d="M22.264,959.445a.422.422,0,0,0-.29.145l-4.526,4.93H13.422a.422.422,0,0,0-.422.422v20.246a.422.422,0,0,0,.422.422h20.27a.422.422,0,0,0,.422-.422V964.941a.422.422,0,0,0-.422-.422H23.135a.422.422,0,1,0,0,.844H33.27v9.279H27.78a.418.418,0,0,0-.079,0,.424.424,0,1,0,.079.844h5.49v9.279H23.98v-5.483a.423.423,0,1,0-.845,0v5.483h-9.29v-9.279h5.49a.422.422,0,1,0,0-.844h-5.49v-9.279h3.8a.423.423,0,0,0,.317-.145l4.645-5.061a.422.422,0,0,0-.343-.712Zm19.36,5.075a.423.423,0,0,0-.238.145L39.275,967.2a.426.426,0,0,0,.66.54l1.359-1.634v17.913l-1.359-1.634a.427.427,0,1,0-.66.54l2.111,2.531a.423.423,0,0,0,.66,0l2.111-2.531a.426.426,0,0,0-.66-.54l-1.359,1.634V966.1l1.359,1.634a.426.426,0,0,0,.66-.54l-2.111-2.531a.422.422,0,0,0-.422-.145ZM15.943,990.657a.423.423,0,0,0-.251.106l-2.534,2.109a.422.422,0,0,0,0,.646l2.534,2.109a.422.422,0,1,0,.528-.646l-1.636-1.358h8.129a.422.422,0,1,0,0-.844H14.57l1.65-1.371a.422.422,0,0,0-.277-.751Zm15.176,0a.422.422,0,0,0-.224.751l1.65,1.371h-7.3a.429.429,0,0,0-.079,0,.424.424,0,1,0,.079.844h7.285l-1.636,1.358a.422.422,0,1,0,.528.646l2.534-2.109a.422.422,0,0,0,0-.646l-2.534-2.109A.422.422,0,0,0,31.119,990.657Z" transform="translate(-13 -959.443)" fill="#056fb4" stroke="#056fb4" stroke-width="1.1"/>
    </g>
  </g>
</svg>
