<svg xmlns="http://www.w3.org/2000/svg" width="45.025" height="34.742" viewBox="0 0 45.025 34.742">
  <g id="Grupo_4731" data-name="Grupo 4731" transform="translate(-2.4 -13.3)">
    <path id="Trazado_24398" data-name="Trazado 24398" d="M83.869,22.341A1.326,1.326,0,0,0,82.544,21.3H76.958a1.409,1.409,0,0,0-1.325,1.089l-1.373,6.3a1.277,1.277,0,0,0,.284,1.136,1.323,1.323,0,0,0,1.041.521h3.171V50.362h-.852a.947.947,0,0,0,0,1.893h3.739a.947.947,0,1,0,0-1.893h-.9V30.293h3.171a1.257,1.257,0,0,0,1.041-.521,1.646,1.646,0,0,0,.284-1.136Zm-7.526,6.011,1.089-5.112h4.591l1.089,5.112Z" transform="translate(-37.828 -4.213)" fill="#056fb4"/>
    <path id="Trazado_24399" data-name="Trazado 24399" d="M32.74,53.346V47.524A3.121,3.121,0,0,0,29.616,44.4H9.074A3.121,3.121,0,0,0,5.95,47.524v5.822A5.1,5.1,0,0,0,2.4,58.174v5.3a.947.947,0,0,0,1.893,0V61.866H34.255v1.609a.947.947,0,0,0,1.893,0v-5.3A4.808,4.808,0,0,0,32.74,53.346ZM7.891,47.524a1.172,1.172,0,0,1,1.183-1.183H29.616A1.172,1.172,0,0,1,30.8,47.524v5.585H28.859V50.127a1.778,1.778,0,0,0-1.751-1.751H22a1.778,1.778,0,0,0-1.751,1.751v2.982h-1.8V50.127a1.778,1.778,0,0,0-1.751-1.751H11.582a1.778,1.778,0,0,0-1.751,1.751v2.982H7.891Zm19.028,2.745v2.793H22.185V50.269Zm-10.366,0v2.793H11.819V50.269Zm17.8,9.656H4.388V58.174A3.171,3.171,0,0,1,7.559,55H31.178a3.171,3.171,0,0,1,3.171,3.171Z" transform="translate(0 -16.38)" fill="#056fb4"/>
    <path id="Trazado_24400" data-name="Trazado 24400" d="M21.443,24.991h14.91a.949.949,0,0,0,.947-.947v-9.8a.949.949,0,0,0-.947-.947H21.443a.949.949,0,0,0-.947.947V24A.907.907,0,0,0,21.443,24.991Zm6.674-1.941,2.6-2.745c.947.9,2.035,1.941,2.887,2.745Zm-5.727-7.81H35.406V22.1c-.852-.8-2.177-2.083-4.023-3.834a.963.963,0,0,0-.71-.284.859.859,0,0,0-.663.284L25.466,23.05H22.389Z" transform="translate(-9.529 0)" fill="#056fb4"/>
    <circle id="Elipse_426" data-name="Elipse 426" cx="1.515" cy="1.515" r="1.515" transform="translate(14.28 16.803)" fill="#056fb4"/>
  </g>
</svg>
