<svg xmlns="http://www.w3.org/2000/svg" width="50.596" height="35.365" viewBox="0 0 50.596 35.365">
  <g id="noun_Bathroom_1854237" transform="translate(-8.65 -21.166)">
    <path id="Trazado_24401" data-name="Trazado 24401" d="M55.314,33.314H14.49V25.453a2.72,2.72,0,0,1,5.28-.922l.2.548-1.142.412a1.688,1.688,0,0,0-1.016,2.161l.642,1.78a.61.61,0,0,0,.313.345.616.616,0,0,0,.259.058.6.6,0,0,0,.206-.036l5.462-1.97a.608.608,0,0,0,.366-.779l-.642-1.78a1.688,1.688,0,0,0-2.161-1.015l-1.143.412-.2-.549a3.937,3.937,0,0,0-7.641,1.335v7.861h-.692a3.58,3.58,0,0,0-2.666,5.972c0,.011-.007.021-.007.032a.6.6,0,0,0,.206.449v2.427a9.2,9.2,0,0,0,6.931,8.941l-.906,2.122A2.092,2.092,0,1,0,19.986,54.9l1.39-3.263c.029-.07.044-.139.066-.209H46.454c.022.07.037.139.067.209L47.909,54.9a2.092,2.092,0,1,0,3.848-1.642l-.907-2.124a9.2,9.2,0,0,0,6.931-8.941v-2.7l.067-.065,0,0a3.583,3.583,0,0,0-2.537-6.112ZM22.668,25.4a.465.465,0,0,1,.16-.028.472.472,0,0,1,.443.312l.436,1.207L19.39,28.447l-.436-1.208a.471.471,0,0,1,.283-.6l1.715-.619h0ZM51.8,34.531v8.692H45.241V34.531Zm-40.887.691a2.352,2.352,0,0,1,1.673-.691H44.024v4.179H11.069a2.364,2.364,0,0,1-.161-3.487Zm7.958,19.206a.853.853,0,0,1-1.15.456.863.863,0,0,1-.457-1.147l1.012-2.371c.04,0,.079,0,.119.007a9.153,9.153,0,0,0,.969.058h.783Zm31.783-.018a.862.862,0,0,1-.469.474h0a.853.853,0,0,1-1.15-.458l-1.275-3h.783a9.16,9.16,0,0,0,.971-.058c.039,0,.078,0,.118-.007l1.013,2.373A.867.867,0,0,1,50.649,54.41Zm6.337-15.84a2.575,2.575,0,0,1-.3.256.609.609,0,0,0-.118.874v2.5a8.037,8.037,0,0,1-8.027,8.02H19.359a8.039,8.039,0,0,1-8.027-8.02V39.926H44.024v3.905a.608.608,0,0,0,.608.608H52.4a.608.608,0,0,0,.608-.608v-9.3h2.3a2.366,2.366,0,0,1,1.672,4.039Z" transform="translate(0 0)" fill="#056fb4" stroke="#056fb4" stroke-width="0.7"/>
  </g>
</svg>
